<svg width="25" height="24" viewBox="0 0 25 24" fill="none" xmlns="http://www.w3.org/2000/svg">
<g clip-path="url(#clip0_1120_4960)">
<path d="M22.2599 13.2244C21.9809 13.0096 21.656 12.8622 21.3107 12.7934C20.9653 12.7246 20.6087 12.7364 20.2687 12.8278L16.3462 13.7297C16.4375 13.3442 16.4403 12.943 16.3544 12.5563C16.2686 12.1695 16.0963 11.8072 15.8506 11.4965C15.6048 11.1858 15.2919 10.9347 14.9353 10.7622C14.5787 10.5896 14.1877 10.5 13.7915 10.5H9.09838C8.70425 10.499 8.31384 10.5761 7.94969 10.7269C7.58554 10.8777 7.25488 11.0991 6.97682 11.3784L4.85619 13.5H2.1665C1.76868 13.5 1.38715 13.658 1.10584 13.9393C0.824539 14.2206 0.666504 14.6022 0.666504 15L0.666504 18.75C0.666504 19.1478 0.824539 19.5294 1.10584 19.8107C1.38715 20.092 1.76868 20.25 2.1665 20.25H11.9165C11.9778 20.25 12.0389 20.2425 12.0984 20.2275L18.0984 18.7275C18.1369 18.7183 18.1745 18.7057 18.2109 18.69L21.854 17.1394L21.8953 17.1206C22.2455 16.9456 22.5454 16.6843 22.7667 16.3614C22.988 16.0385 23.1235 15.6645 23.1604 15.2747C23.1972 14.8849 23.1343 14.4922 22.9774 14.1335C22.8205 13.7748 22.5749 13.4619 22.2637 13.2244H22.2599ZM4.4165 18.75H2.1665V15H4.4165V18.75ZM21.2381 15.7697L17.6756 17.2866L11.8228 18.75H5.9165V14.5603L8.03807 12.4397C8.17685 12.2998 8.34206 12.1889 8.52408 12.1134C8.70611 12.0379 8.90132 11.9994 9.09838 12H13.7915C14.0899 12 14.376 12.1185 14.587 12.3295C14.798 12.5405 14.9165 12.8266 14.9165 13.125C14.9165 13.4234 14.798 13.7095 14.587 13.9205C14.376 14.1315 14.0899 14.25 13.7915 14.25H11.1665C10.9676 14.25 10.7768 14.329 10.6362 14.4697C10.4955 14.6103 10.4165 14.8011 10.4165 15C10.4165 15.1989 10.4955 15.3897 10.6362 15.5303C10.7768 15.671 10.9676 15.75 11.1665 15.75H14.1665C14.223 15.7498 14.2792 15.7435 14.3343 15.7312L20.6156 14.2866L20.6446 14.2791C20.8364 14.2258 21.041 14.2454 21.2192 14.334C21.3974 14.4226 21.5366 14.5739 21.6099 14.7589C21.6832 14.9439 21.6855 15.1495 21.6163 15.3361C21.5471 15.5227 21.4114 15.6771 21.2353 15.7697H21.2381ZM15.1359 5.78062C15.0661 5.71097 15.0108 5.62825 14.9731 5.5372C14.9353 5.44615 14.9159 5.34856 14.9159 5.24999C14.9159 5.15143 14.9353 5.05384 14.9731 4.96279C15.0108 4.87174 15.0661 4.78902 15.1359 4.71937L18.1359 1.71937C18.2055 1.64964 18.2882 1.59432 18.3793 1.55658C18.4703 1.51883 18.5679 1.4994 18.6665 1.4994C18.7651 1.4994 18.8627 1.51883 18.9537 1.55658C19.0448 1.59432 19.1275 1.64964 19.1971 1.71937L22.1971 4.71937C22.2668 4.78905 22.3221 4.87178 22.3598 4.96282C22.3975 5.05387 22.4169 5.15145 22.4169 5.24999C22.4169 5.34854 22.3975 5.44612 22.3598 5.53717C22.3221 5.62821 22.2668 5.71094 22.1971 5.78062C22.1274 5.8503 22.0447 5.90558 21.9537 5.94329C21.8626 5.981 21.7651 6.00041 21.6665 6.00041C21.568 6.00041 21.4704 5.981 21.3793 5.94329C21.2883 5.90558 21.2056 5.8503 21.1359 5.78062L19.4165 4.06031V9.75C19.4165 9.94891 19.3375 10.1397 19.1968 10.2803C19.0562 10.421 18.8654 10.5 18.6665 10.5C18.4676 10.5 18.2768 10.421 18.1362 10.2803C17.9955 10.1397 17.9165 9.94891 17.9165 9.75V4.06031L16.1971 5.78062C16.1275 5.85035 16.0448 5.90567 15.9537 5.94341C15.8627 5.98116 15.7651 6.00059 15.6665 6.00059C15.5679 6.00059 15.4703 5.98116 15.3793 5.94341C15.2882 5.90567 15.2055 5.85035 15.1359 5.78062Z" fill="black"/>
</g>
<defs>
<clipPath id="clip0_1120_4960">
<rect width="24" height="24" fill="white" transform="translate(0.666504)"/>
</clipPath>
</defs>
</svg>
