<svg width="23" height="14" viewBox="0 0 23 14" fill="none" xmlns="http://www.w3.org/2000/svg">
<path d="M11.3335 3.25C10.5918 3.25 9.86679 3.46993 9.25011 3.88199C8.63342 4.29404 8.15278 4.87971 7.86895 5.56494C7.58512 6.25016 7.51086 7.00416 7.65555 7.73159C7.80025 8.45902 8.1574 9.1272 8.68185 9.65165C9.20629 10.1761 9.87448 10.5333 10.6019 10.6779C11.3293 10.8226 12.0833 10.7484 12.7686 10.4645C13.4538 10.1807 14.0395 9.70007 14.4515 9.08339C14.8636 8.4667 15.0835 7.74168 15.0835 7C15.0835 6.00544 14.6884 5.05161 13.9851 4.34835C13.2819 3.64509 12.3281 3.25 11.3335 3.25ZM11.3335 9.25C10.8885 9.25 10.4535 9.11804 10.0835 8.87081C9.71345 8.62357 9.42506 8.27217 9.25477 7.86104C9.08447 7.4499 9.03991 6.9975 9.12673 6.56105C9.21355 6.12459 9.42784 5.72368 9.74251 5.40901C10.0572 5.09434 10.4581 4.88005 10.8945 4.79323C11.331 4.70642 11.7834 4.75097 12.1945 4.92127C12.6057 5.09157 12.9571 5.37996 13.2043 5.74997C13.4515 6.11998 13.5835 6.55499 13.5835 7C13.5835 7.59674 13.3464 8.16903 12.9245 8.59099C12.5025 9.01295 11.9302 9.25 11.3335 9.25ZM21.8335 0.25H0.833496C0.634584 0.25 0.443818 0.329018 0.303166 0.46967C0.162514 0.610322 0.0834961 0.801088 0.0834961 1V13C0.0834961 13.1989 0.162514 13.3897 0.303166 13.5303C0.443818 13.671 0.634584 13.75 0.833496 13.75H21.8335C22.0324 13.75 22.2232 13.671 22.3638 13.5303C22.5045 13.3897 22.5835 13.1989 22.5835 13V1C22.5835 0.801088 22.5045 0.610322 22.3638 0.46967C22.2232 0.329018 22.0324 0.25 21.8335 0.25ZM17.4882 12.25H5.17881C4.927 11.3984 4.46613 10.6233 3.83817 9.99533C3.21021 9.36737 2.43512 8.90649 1.5835 8.65469V5.34531C2.43512 5.0935 3.21021 4.63263 3.83817 4.00467C4.46613 3.37671 4.927 2.60162 5.17881 1.75H17.4882C17.74 2.60162 18.2009 3.37671 18.8288 4.00467C19.4568 4.63263 20.2319 5.0935 21.0835 5.34531V8.65469C20.2319 8.90649 19.4568 9.36737 18.8288 9.99533C18.2009 10.6233 17.74 11.3984 17.4882 12.25ZM21.0835 3.75344C20.1839 3.36662 19.4669 2.64959 19.0801 1.75H21.0835V3.75344ZM3.58693 1.75C3.20011 2.64959 2.48309 3.36662 1.5835 3.75344V1.75H3.58693ZM1.5835 10.2466C2.48309 10.6334 3.20011 11.3504 3.58693 12.25H1.5835V10.2466ZM19.0801 12.25C19.4669 11.3504 20.1839 10.6334 21.0835 10.2466V12.25H19.0801Z" fill="black"/>
</svg>
