<svg width="228" height="133" viewBox="0 0 228 133" fill="none" xmlns="http://www.w3.org/2000/svg">
<path opacity="0.2" d="M82.8936 0.000133514C82.8936 4.46508 83.8118 8.8863 85.5958 13.0114C87.3799 17.1364 89.9948 20.8846 93.2913 24.0418C96.5877 27.1989 100.501 29.7034 104.808 31.412C109.115 33.1207 113.732 34.0001 118.394 34.0001C123.055 34.0001 127.672 33.1207 131.979 31.412C136.286 29.7034 140.199 27.1989 143.496 24.0417C146.792 20.8846 149.407 17.1364 151.191 13.0114C152.975 8.88628 153.894 4.46507 153.894 0.000122929L118.394 0.000132036L82.8936 0.000133514Z" fill="white"/>
<path opacity="0.1" d="M82.7051 55.8499C82.7051 61.0221 81.6355 66.1438 79.5573 70.9223C77.4792 75.7009 74.4332 80.0428 70.5932 83.7001C66.7533 87.3575 62.1946 90.2586 57.1775 92.238C52.1604 94.2173 46.7831 95.2361 41.3526 95.2361C35.9221 95.2361 30.5448 94.2173 25.5277 92.238C20.5106 90.2586 15.952 87.3575 12.112 83.7001C8.27212 80.0428 5.22612 75.7009 3.14796 70.9223C1.06981 66.1437 0.000198364 61.0221 0.000198364 55.8498L41.3526 55.8499L82.7051 55.8499Z" fill="white"/>
<rect opacity="0.1" x="153.531" y="33.7758" width="67.4048" height="70.7706" transform="rotate(90 153.531 33.7758)" fill="white"/>
<path opacity="0.07" d="M79.1274 129.338L118.745 92.6374L153.492 58.5098L153.492 129.338L79.1274 129.338Z" fill="white"/>
<ellipse opacity="0.07" cx="190.635" cy="97.7093" rx="35.2884" ry="37.0501" transform="rotate(90 190.635 97.7093)" fill="white"/>
<rect opacity="0.2" x="220.893" width="66" height="68" transform="rotate(90 220.893 0)" fill="#B0C3FE"/>
<path opacity="0.2" d="M219.16 0.00012207L184.201 32.3854L153.54 62.5L153.54 0.000119494L219.16 0.00012207Z" fill="white"/>
</svg>
