<svg width="16" height="17" viewBox="0 0 16 17" fill="none" xmlns="http://www.w3.org/2000/svg">
<path d="M12.4898 4.04356C11.9083 3.45621 11.2167 2.98932 10.4545 2.66963C9.69228 2.34995 8.87451 2.18375 8.04799 2.18054H7.99999C6.32397 2.18054 4.71659 2.84634 3.53146 4.03146C2.34634 5.21659 1.68054 6.82397 1.68054 8.49999V11.9028C1.68054 12.2895 1.83419 12.6605 2.10768 12.934C2.38117 13.2075 2.7521 13.3611 3.13888 13.3611H4.1111C4.49787 13.3611 4.8688 13.2075 5.1423 12.934C5.41579 12.6605 5.56943 12.2895 5.56943 11.9028V9.47221C5.56943 9.08543 5.41579 8.7145 5.1423 8.44101C4.8688 8.16752 4.49787 8.01388 4.1111 8.01388H2.67464C2.76839 7.00029 3.14911 6.03443 3.77217 5.22949C4.39524 4.42456 5.23484 3.81389 6.19256 3.46908C7.15029 3.12426 8.18646 3.05959 9.17963 3.28262C10.1728 3.50566 11.0818 4.00717 11.8002 4.72837C12.6781 5.61085 13.2182 6.77372 13.3259 8.01388H11.8889C11.5021 8.01388 11.1312 8.16752 10.8577 8.44101C10.5842 8.7145 10.4305 9.08543 10.4305 9.47221V11.9028C10.4305 12.2895 10.5842 12.6605 10.8577 12.934C11.1312 13.2075 11.5021 13.3611 11.8889 13.3611H13.3472C13.3472 13.7479 13.1936 14.1188 12.9201 14.3923C12.6466 14.6658 12.2757 14.8194 11.8889 14.8194H8.4861C8.35717 14.8194 8.23353 14.8706 8.14236 14.9618C8.0512 15.053 7.99999 15.1766 7.99999 15.3055C7.99999 15.4345 8.0512 15.5581 8.14236 15.6493C8.23353 15.7404 8.35717 15.7917 8.4861 15.7917H11.8889C12.5335 15.7917 13.1517 15.5356 13.6075 15.0798C14.0634 14.6239 14.3194 14.0057 14.3194 13.3611V8.49999C14.3226 7.67334 14.1626 6.85419 13.8487 6.08948C13.5347 5.32476 13.0729 4.62951 12.4898 4.04356ZM4.1111 8.9861C4.24002 8.9861 4.36367 9.03731 4.45483 9.12848C4.54599 9.21964 4.59721 9.34328 4.59721 9.47221V11.9028C4.59721 12.0317 4.54599 12.1553 4.45483 12.2465C4.36367 12.3377 4.24002 12.3889 4.1111 12.3889H3.13888C3.00995 12.3889 2.88631 12.3377 2.79514 12.2465C2.70398 12.1553 2.65276 12.0317 2.65276 11.9028V8.9861H4.1111ZM11.8889 12.3889C11.76 12.3889 11.6363 12.3377 11.5451 12.2465C11.454 12.1553 11.4028 12.0317 11.4028 11.9028V9.47221C11.4028 9.34328 11.454 9.21964 11.5451 9.12848C11.6363 9.03731 11.76 8.9861 11.8889 8.9861H13.3472V12.3889H11.8889Z" fill="#003FFC"/>
</svg>
