<svg width="16" height="14" viewBox="0 0 16 14" fill="none" xmlns="http://www.w3.org/2000/svg">
<path d="M15.5 7.0001C15.5 7.16586 15.4342 7.32484 15.3169 7.44205C15.1997 7.55926 15.0408 7.6251 14.875 7.6251H2.6336L7.19219 12.1829C7.25026 12.241 7.29632 12.3099 7.32775 12.3858C7.35918 12.4617 7.37535 12.543 7.37535 12.6251C7.37535 12.7072 7.35918 12.7885 7.32775 12.8644C7.29632 12.9403 7.25026 13.0092 7.19219 13.0673C7.13412 13.1254 7.06518 13.1714 6.98931 13.2028C6.91344 13.2343 6.83213 13.2505 6.75 13.2505C6.66788 13.2505 6.58656 13.2343 6.51069 13.2028C6.43482 13.1714 6.36588 13.1254 6.30782 13.0673L0.682816 7.44229C0.624706 7.38425 0.578606 7.31531 0.547154 7.23944C0.515701 7.16357 0.499512 7.08224 0.499512 7.0001C0.499512 6.91797 0.515701 6.83664 0.547154 6.76077C0.578606 6.68489 0.624706 6.61596 0.682816 6.55792L6.30782 0.932916C6.42509 0.81564 6.58415 0.749756 6.75 0.749756C6.91586 0.749756 7.07492 0.81564 7.19219 0.932916C7.30947 1.05019 7.37535 1.20925 7.37535 1.3751C7.37535 1.54096 7.30947 1.70002 7.19219 1.81729L2.6336 6.3751H14.875C15.0408 6.3751 15.1997 6.44095 15.3169 6.55816C15.4342 6.67537 15.5 6.83434 15.5 7.0001Z" fill="black"/>
</svg>
