<svg width="24" height="20" viewBox="0 0 24 20" fill="none" xmlns="http://www.w3.org/2000/svg">
<path d="M0.280273 10C1.29916 4.45307 6.15896 0.25 12.0005 0.25C17.8419 0.25 22.7018 4.45307 23.7206 10C22.7018 15.5469 17.8419 19.75 12.0005 19.75C6.15896 19.75 1.29916 15.5469 0.280273 10ZM12.0005 15.4167C14.992 15.4167 17.4172 12.9915 17.4172 10C17.4172 7.00846 14.992 4.58333 12.0005 4.58333C9.00891 4.58333 6.58378 7.00846 6.58378 10C6.58378 12.9915 9.00891 15.4167 12.0005 15.4167ZM12.0005 13.25C10.2055 13.25 8.75045 11.795 8.75045 10C8.75045 8.20503 10.2055 6.75 12.0005 6.75C13.7954 6.75 15.2505 8.20503 15.2505 10C15.2505 11.795 13.7954 13.25 12.0005 13.25Z" fill="#ADB4C0"/>
</svg>
