<svg width="24" height="24" viewBox="0 0 24 24" fill="none" xmlns="http://www.w3.org/2000/svg">
<path d="M3.89734 5.42908L0.509962 2.04172L2.04203 0.509644L23.491 21.9585L21.9589 23.4907L18.3731 19.9048C16.53 21.0734 14.3443 21.7502 12.0005 21.7502C6.15896 21.7502 1.29916 17.5471 0.280273 12.0002C0.753343 9.42469 2.05443 7.13894 3.89734 5.42908ZM14.9877 16.5194L13.4017 14.9334C12.9773 15.1364 12.5022 15.2502 12.0005 15.2502C10.2055 15.2502 8.75045 13.795 8.75045 12.0002C8.75045 11.4984 8.86415 11.0232 9.06718 10.5989L7.48121 9.01297C6.91407 9.86926 6.58378 10.8962 6.58378 12.0002C6.58378 14.9917 9.00891 17.4168 12.0005 17.4168C13.1044 17.4168 14.1313 17.0865 14.9877 16.5194ZM7.63916 3.07346C8.98987 2.54202 10.4611 2.25014 12.0005 2.25014C17.8419 2.25014 22.7018 6.45321 23.7206 12.0002C23.3824 13.8414 22.6209 15.5347 21.5409 16.9752L17.3594 12.7937C17.3974 12.5347 17.4172 12.2697 17.4172 12.0002C17.4172 9.00859 14.992 6.58347 12.0005 6.58347C11.7308 6.58347 11.4659 6.60316 11.2068 6.64118L7.63916 3.07346Z" fill="#ADB4C0"/>
</svg>
