<svg width="14" height="14" viewBox="0 0 14 14" fill="none" xmlns="http://www.w3.org/2000/svg">
<path d="M7 3.51172H12.4167" stroke="#5A63F6" stroke-width="1.5" stroke-miterlimit="10" stroke-linecap="round" stroke-linejoin="round"/>
<path d="M8.2025 1.58337H11.2142C12.1783 1.58337 12.4167 1.82171 12.4167 2.77504V5.00129C12.4167 5.95462 12.1783 6.19296 11.2142 6.19296H8.2025C7.23833 6.19296 7 5.95462 7 5.00129V2.77504C7 1.82171 7.23833 1.58337 8.2025 1.58337Z" stroke="#5A63F6" stroke-width="1.5" stroke-linecap="round" stroke-linejoin="round"/>
<path d="M1.58362 9.74084H7.00029" stroke="#5A63F6" stroke-width="1.5" stroke-miterlimit="10" stroke-linecap="round" stroke-linejoin="round"/>
<path d="M2.78612 7.8125H5.79778C6.76195 7.8125 7.00029 8.05083 7.00029 9.00417V11.2304C7.00029 12.1838 6.76195 12.4221 5.79778 12.4221H2.78612C1.82195 12.4221 1.58362 12.1838 1.58362 11.2304V9.00417C1.58362 8.05083 1.82195 7.8125 2.78612 7.8125Z" stroke="#5A63F6" stroke-width="1.5" stroke-linecap="round" stroke-linejoin="round"/>
<path d="M12.4163 8.625C12.4163 10.7213 10.7209 12.4167 8.62463 12.4167L9.19338 11.4688" stroke="#5A63F6" stroke-width="1.5" stroke-linecap="round" stroke-linejoin="round"/>
<path d="M1.58325 5.37504C1.58325 3.27879 3.27867 1.58337 5.37492 1.58337L4.80618 2.53129" stroke="#5A63F6" stroke-width="1.5" stroke-linecap="round" stroke-linejoin="round"/>
</svg>
