<svg width="25" height="24" viewBox="0 0 25 24" fill="none" xmlns="http://www.w3.org/2000/svg">
<g clip-path="url(#clip0_834_4131)">
<path d="M22.2602 13.2244C21.9811 13.0096 21.6563 12.8621 21.3109 12.7934C20.9656 12.7246 20.609 12.7364 20.2689 12.8278L16.3464 13.7297C16.4377 13.3442 16.4405 12.943 16.3547 12.5562C16.2688 12.1695 16.0966 11.8072 15.8508 11.4965C15.605 11.1858 15.2921 10.9347 14.9355 10.7621C14.5789 10.5896 14.1879 10.4999 13.7917 10.5H9.09862C8.7045 10.499 8.31408 10.5761 7.94993 10.7269C7.58579 10.8777 7.25513 11.0991 6.97706 11.3784L4.85644 13.5H2.16675C1.76892 13.5 1.38739 13.658 1.10609 13.9393C0.824783 14.2206 0.666748 14.6022 0.666748 15L0.666748 18.75C0.666748 19.1478 0.824783 19.5293 1.10609 19.8106C1.38739 20.0919 1.76892 20.25 2.16675 20.25H11.9167C11.9781 20.25 12.0392 20.2425 12.0986 20.2275L18.0986 18.7275C18.1371 18.7182 18.1748 18.7057 18.2111 18.69L21.8542 17.1394L21.8955 17.1206C22.2457 16.9456 22.5456 16.6843 22.767 16.3614C22.9883 16.0384 23.1238 15.6645 23.1606 15.2747C23.1975 14.8849 23.1345 14.4922 22.9776 14.1335C22.8208 13.7748 22.5751 13.4619 22.2639 13.2244H22.2602ZM4.41675 18.75H2.16675V15H4.41675V18.75ZM21.2383 15.7697L17.6758 17.2865L11.823 18.75H5.91675V14.5603L8.03831 12.4397C8.17709 12.2998 8.3423 12.1889 8.52433 12.1134C8.70635 12.0379 8.90157 11.9994 9.09862 12H13.7917C14.0901 12 14.3763 12.1185 14.5872 12.3295C14.7982 12.5405 14.9167 12.8266 14.9167 13.125C14.9167 13.4233 14.7982 13.7095 14.5872 13.9205C14.3763 14.1315 14.0901 14.25 13.7917 14.25H11.1667C10.9678 14.25 10.7771 14.329 10.6364 14.4696C10.4958 14.6103 10.4167 14.8011 10.4167 15C10.4167 15.1989 10.4958 15.3897 10.6364 15.5303C10.7771 15.671 10.9678 15.75 11.1667 15.75H14.1667C14.2232 15.7498 14.2795 15.7435 14.3346 15.7312L20.6158 14.2865L20.6449 14.279C20.8366 14.2258 21.0413 14.2454 21.2195 14.334C21.3977 14.4226 21.5368 14.5739 21.6101 14.7589C21.6834 14.9439 21.6857 15.1495 21.6165 15.3361C21.5474 15.5227 21.4117 15.6771 21.2355 15.7697H21.2383ZM15.1361 5.7806C15.0664 5.71095 15.0111 5.62823 14.9733 5.53718C14.9356 5.44614 14.9162 5.34854 14.9162 5.24998C14.9162 5.15142 14.9356 5.05382 14.9733 4.96277C15.0111 4.87173 15.0664 4.78901 15.1361 4.71935L18.1361 1.71935C18.2058 1.64962 18.2885 1.5943 18.3795 1.55656C18.4706 1.51882 18.5682 1.49939 18.6667 1.49939C18.7653 1.49939 18.8629 1.51882 18.954 1.55656C19.045 1.5943 19.1277 1.64962 19.1974 1.71935L22.1974 4.71935C22.2671 4.78904 22.3223 4.87176 22.36 4.96281C22.3978 5.05385 22.4172 5.15143 22.4172 5.24998C22.4172 5.34853 22.3978 5.44611 22.36 5.53715C22.3223 5.6282 22.2671 5.71092 22.1974 5.7806C22.1277 5.85029 22.045 5.90556 21.9539 5.94327C21.8629 5.98099 21.7653 6.0004 21.6667 6.0004C21.5682 6.0004 21.4706 5.98099 21.3796 5.94327C21.2885 5.90556 21.2058 5.85029 21.1361 5.7806L19.4167 4.06029V9.74998C19.4167 9.94889 19.3377 10.1397 19.1971 10.2803C19.0564 10.421 18.8657 10.5 18.6667 10.5C18.4678 10.5 18.2771 10.421 18.1364 10.2803C17.9958 10.1397 17.9167 9.94889 17.9167 9.74998V4.06029L16.1974 5.7806C16.1277 5.85034 16.045 5.90566 15.954 5.9434C15.8629 5.98114 15.7653 6.00057 15.6667 6.00057C15.5682 6.00057 15.4706 5.98114 15.3795 5.9434C15.2885 5.90566 15.2058 5.85034 15.1361 5.7806Z" fill="black"/>
</g>
<defs>
<clipPath id="clip0_834_4131">
<rect width="24" height="24" fill="white" transform="translate(0.666748)"/>
</clipPath>
</defs>
</svg>
